<svg xmlns="http://www.w3.org/2000/svg" xmlns:xlink="http://www.w3.org/1999/xlink" xmlns:lucid="lucid" width="2680" height="1372"><g transform="translate(872 -436)" lucid:page-tab-id="0_0"><path d="M-1000 500h2500v1500h-2500z" fill="#fff"/><path d="M-222 806a6 6 0 0 1 6-6h925.52a6 6 0 0 1 6 6v768a6 6 0 0 1-6 6H-216a6 6 0 0 1-6-6z" stroke="#3a414a" stroke-width="4" fill="#fff"/><path d="M-482.4 1246.77l-3.5-1.6c.6-2.32.9-4.64.9-6.88 0-2.33-.3-4.65-.9-6.9l3.5-1.6c1.1-.47 1.9-1.27 2.2-2.23.4-.96.2-1.92-.4-2.8l-9.7-12.96c-.6-.87-1.6-1.5-2.9-1.75-1.2-.24-2.5-.08-3.6.4l-3.5 1.6c-4.5-3.12-9.7-5.44-15.3-6.88v-3.2c0-2-2.1-3.68-4.7-3.68h-19.4c-2.6 0-4.7 1.67-4.7 3.67v3.2c-5.6 1.44-10.8 3.76-15.3 6.88l-3.5-1.6c-1.1-.48-2.4-.64-3.6-.4-1.3.24-2.3.88-2.9 1.76l-9.7 12.97c-.6.88-.8 1.84-.4 2.8.3.96 1.1 1.76 2.2 2.24l3.5 1.6c-.6 2.33-.9 4.65-.9 6.9 0 2.3.3 4.63.9 6.87l-3.5 1.6c-2.3 1.04-3.1 3.28-1.8 5.04l9.7 12.97c1.3 1.76 4.2 2.4 6.5 1.36l3.5-1.6c4.5 3.12 9.7 5.44 15.3 6.88v3.2c0 2 2.1 3.7 4.7 3.7h19.4c2.6 0 4.7-1.7 4.7-3.7v-3.2c5.6-1.43 10.8-3.75 15.3-6.87l3.5 1.6c2.3 1.04 5.2.4 6.5-1.36l9.7-12.96c1.3-1.75.5-4-1.8-5.03zm-.9 3.84l-9.6 13.05c-.5.64-1.5.8-2.3.48l-4.6-2.08c-.5-.24-1.2-.16-1.7.16-4.6 3.37-10.2 5.85-16.1 7.3-.6.15-1 .55-1 1.1v4c0 .73-.8 1.37-1.7 1.37h-19.4c-.9 0-1.7-.64-1.7-1.36v-4c0-.55-.4-.95-1-1.1-6-1.45-11.5-3.93-16.1-7.2-.3-.25-.6-.33-1-.33-.3 0-.5 0-.8.16l-4.5 2c-.8.32-1.8.16-2.3-.48l-9.6-13.04c-.5-.63-.2-1.43.6-1.83l4.5-2c.5-.24.8-.8.7-1.28-.7-2.4-1.1-4.8-1.1-7.2 0-2.4.4-4.8 1.1-7.2.1-.5-.2-1.05-.7-1.3l-4.5-2c-.4-.15-.7-.47-.8-.8-.1-.4-.1-.7.2-1.03l9.6-13.04c.2-.32.6-.48 1.1-.56.4-.16.9-.08 1.2.08l4.6 2.08c.5.24 1.2.16 1.7-.16 4.6-3.36 10.2-5.84 16.1-7.28.6-.17 1-.57 1-1.13v-4c0-.72.8-1.36 1.7-1.36h19.4c.9 0 1.7.65 1.7 1.37v4c0 .56.4.96 1 1.12 6 1.43 11.5 3.9 16.1 7.2.5.4 1.2.47 1.8.15l4.5-2c.3-.16.8-.24 1.3-.08.4.08.8.24 1 .56l9.7 13.04c.2.32.2.64.1 1.04-.1.33-.4.65-.8.8l-4.5 2c-.5.25-.8.8-.7 1.3.7 2.4 1.1 4.8 1.1 7.2 0 2.4-.4 4.8-1.1 7.2-.1.47.2 1.03.7 1.27l4.5 2c.8.4 1.1 1.2.6 1.84z" stroke="#000" stroke-opacity="0" stroke-width=".98"/><path d="M-530 1214.6c-16.8 0-30.5 10.65-30.5 23.7 0 13.03 13.7 23.67 30.5 23.67s30.5-10.64 30.5-23.68c0-13.05-13.7-23.7-30.5-23.7zm0 45.05c-15.1 0-27.5-9.6-27.5-21.36 0-11.77 12.4-21.37 27.5-21.37s27.5 9.6 27.5 21.36c0 11.75-12.4 21.35-27.5 21.35z" stroke="#000" stroke-opacity="0" stroke-width=".98"/><path d="M-524.4 1232.13h-5.6c-.8 0-1.5.48-1.5 1.12v10.08c0 .64.7 1.12 1.5 1.12s1.5-.48 1.5-1.12v-2.64h4.1c3.1 0 5.6-1.93 5.6-4.25 0-2.4-2.5-4.32-5.6-4.32zm0 6.24h-4.1v-3.92h4.1c1.4 0 2.6.88 2.6 2 0 1.04-1.2 1.92-2.6 1.92zM-538.2 1232.85c-.3-.48-.8-.72-1.5-.72h-1.6c-.6 0-1.2.24-1.4.72l-4.8 10c-.3.64.1 1.36.9 1.52.7.24 1.6-.08 1.9-.64l.9-1.76h6.7l.9 1.76c.2.48.8.72 1.4.72.1 0 .3 0 .5-.08.8-.16 1.2-.88.9-1.52l-4.8-10zm-4.5 6.8l2.2-4.72 2.3 4.72h-4.5zM-515.5 1232.13c-.8 0-1.5.48-1.5 1.12v10.08c0 .64.7 1.12 1.5 1.12s1.5-.48 1.5-1.12v-10.08c0-.64-.7-1.12-1.5-1.12zM-519.2 1211.97c1 .24 2.1.56 3.1.88.2.08.4.08.6.08.6 0 1.1-.24 1.4-.72.3-.55 0-1.27-.8-1.5-1.1-.4-2.2-.73-3.4-.97-.8-.24-1.6.16-1.9.72-.2.64.2 1.28 1 1.52zM-561.2 1251.5c-.4-.57-1.3-.8-2.1-.5-.7.33-1 1.05-.6 1.6.7.9 1.4 1.77 2.1 2.65.3.32.8.48 1.3.48.2 0 .5-.08.8-.16.7-.4.9-1.12.4-1.68-.7-.73-1.3-1.6-1.9-2.4zM-533.1 1265.8c-8.1-.55-15.8-3.27-21.6-7.67-.6-.4-1.6-.4-2.1 0-.6.48-.6 1.28 0 1.68 6.3 4.8 14.7 7.77 23.4 8.33h.2c.8 0 1.4-.4 1.5-1.04.1-.65-.6-1.2-1.4-1.3zM-508.3 1213.5c-.7-.33-1.6-.17-2.1.3-.4.57-.3 1.3.4 1.7 7 3.67 12.1 9.27 14.3 15.6.2.47.8.87 1.5.87.1 0 .2 0 .4-.08.8-.17 1.2-.8 1-1.45-2.4-6.88-7.9-12.88-15.5-16.96z" stroke="#000" stroke-opacity="0" stroke-width=".98"/><path d="M-180 860a6 6 0 0 1 6-6H56a6 6 0 0 1 6 6v48a6 6 0 0 1-6 6h-230a6 6 0 0 1-6-6z" fill="none"/><use xlink:href="#a" transform="matrix(1,0,0,1,-180,854.0000731669411) translate(53.33333333333333 38)"/><path d="M155.76 860a6 6 0 0 1 6-6h230a6 6 0 0 1 6 6v48a6 6 0 0 1-6 6h-230a6 6 0 0 1-6-6z" fill="none"/><use xlink:href="#b" transform="matrix(1,0,0,1,155.7624452948814,854.0000731669411) translate(26.722222222222214 32)"/><use xlink:href="#c" transform="matrix(1,0,0,1,155.7624452948814,854.0000731669411) translate(124.27777777777779 32)"/><use xlink:href="#d" transform="matrix(1,0,0,1,155.7624452948814,854.0000731669411) translate(81.22222222222223 80)"/><path d="M473.52 860a6 6 0 0 1 6-6h230a6 6 0 0 1 6 6v48a6 6 0 0 1-6 6h-230a6 6 0 0 1-6-6z" fill="none"/><use xlink:href="#e" transform="matrix(1,0,0,1,473.5239886501879,854.0000731669411) translate(23.444444444444457 38)"/><path d="M830.95 869a6 6 0 0 1 6-6h248a6 6 0 0 1 6 6v68a6 6 0 0 1-6 6h-248a6 6 0 0 1-6-6z" fill="none"/><use xlink:href="#f" transform="matrix(1,0,0,1,830.952924639199,862.9999634165295) translate(86.77777777777777 32)"/><use xlink:href="#g" transform="matrix(1,0,0,1,830.952924639199,862.9999634165295) translate(23.166666666666657 80)"/><use xlink:href="#h" transform="matrix(1,0,0,1,830.952924639199,862.9999634165295) translate(83.55555555555556 128)"/><path d="M1169.54 869a6 6 0 0 1 6-6h228a6 6 0 0 1 6 6v68a6 6 0 0 1-6 6h-228a6 6 0 0 1-6-6z" fill="none"/><use xlink:href="#f" transform="matrix(1,0,0,1,1169.5370569215488,862.9999634165295) translate(76.77777777777777 32)"/><use xlink:href="#i" transform="matrix(1,0,0,1,1169.5370569215488,862.9999634165295) translate(-1.6111111111111285 80)"/><path d="M971.28 1191.9l.32.1h.24l.24.1.24.1.24.1.24.1.24.1.24.1.24.18.24.2.16.2.24.2.16.2.24.2.16.18.16.3.16.3.16.2.08.28.16.3.08.3.08.28.08.3.08.3.08.3v.28l.08.3V1222.5l-.08.28v.3l-.08.4-.08.28-.08.3-.08.2-.08.3-.16.28-.08.3-.16.2-.16.3-.16.28-.16.2-.16.2-.24.2-.16.18-.24.2-.24.2-.16.2-.24.1-.24.1-.24.1-.24.1-.24.08-.24.1h-.32l-.24.1h-.96l-.24-.1h-.24l-.24-.1-.24-.1-.24-.1-.24-.1-.24-.2-.24-.1-.24-.18-.16-.1-.24-.2-.16-.2-.24-.3-.16-.18-.16-.2-.16-.3-.16-.2-.16-.28-.08-.3-.16-.3-.08-.2-.08-.28-.08-.3-.08-.3-.08-.38v-.6l-.08-.3v-13.52l-9.44 6.67-.24.1-.16.1-.16.1-.24.1-.16.1-.24.1-.16.1-.24-.02-.16.1h-1.28l-.24-.1h-.4l-.16-.1-.24-.1-.16-.1-.24-.1-.16-.1-.24-.08-.16-.1-.16-.2-.16-.1-.16-.2-.24-.1-.08-.2-.16-.18-.16-.2-.16-.2-.16-.2-.08-.2-.16-.18-.08-.2-.08-.1-.08-.2-.08-.2-.08-.3-.08-.2-.08-.28-.08-.2v-.3l-.08-.2v-.3l-.08-.18v-1.28l.08-.3v-.2l.08-.28v-.2l.08-.3.08-.2.08-.28.08-.2.08-.3.08-.2.16-.2.08-.18.16-.2.08-.2.16-.2.16-.2.08-.18.16-.2.16-.1.16-.2.24-.2.16-.1.08-.1 16.96-11.95.4-.2.4-.2.4-.2.48-.1.4-.1h.4zm18.24 0l.48.1.4.1.4.2.4.2.4.2 16.96 11.95.16.2.16.1.16.2.16.1.16.2.16.18.16.1.16.2.08.2.16.2.08.2.16.28.08.2.08.2.08.3.08.2.08.2.08.28.08.2v.3l.08.2v.3l.08.28v.98l-.08.3v.5l-.08.18-.08.3v.2l-.08.3-.08.18-.08.2-.16.3v.1l-.16.2-.08.28-.16.2-.08.2-.16.2-.16.2-.16.1-.16.18-.16.2-.16.1-.16.2-.16.1-.16.1-.24.18-.16.1-.24.1-.16.1-.24.1h-.16l-.24.1h-.16l-.24.1h-1.28l-.16-.1h-.24l-.16-.1-.24-.1h-.16l-.24-.1-.16-.1-.16-.1-.24-.2h-.08l-9.44-6.66v13.64l-.08.3v.28l-.08.3v.4l-.08.28-.08.3-.08.2-.16.3-.08.28-.16.3-.16.2-.16.3-.16.28-.16.2-.16.2-.16.2-.24.18-.16.2-.24.2-.24.1-.24.2-.24.1-.24.1-.24.1-.24.08-.24.1h-.24l-.24.1h-.96l-.32-.1H988l-.24-.1-.24-.1-.24-.1-.24-.1-.24-.2-.24-.1-.16-.18-.24-.1-.24-.2-.16-.2-.16-.3-.24-.18-.16-.2-.16-.3-.16-.2-.08-.28-.16-.3-.08-.3-.16-.2-.08-.28-.08-.3v-.3l-.08-.38-.08-.3V1197.38l.08-.28v-.4l.08-.3.08-.28.08-.3.08-.3.08-.18.16-.3.16-.3.08-.3.16-.18.16-.3.24-.2.16-.2.16-.28.24-.2.24-.1.16-.2.24-.2.24-.1.24-.1.24-.1.24-.08.24-.1.24-.1h.32l.24-.1h.4zm25.6-31h.4l.24.1h.16l.24.1h.24l.16.1.24.1.16.1.24.1.16.1.16.2.16.1.24.08.16.2.16.2.16.1.16.2.08.2.16.18.16.2.08.2.16.2.08.2.08.1.08.18.08.3.08.2.08.3.08.18.08.2v.3l.08.2v.28l.08.2v1.28l-.08.3v.18l-.08.3v.2l-.08.3-.08.2-.08.28-.08.2-.08.2-.08.3-.08.18-.16.2-.08.2-.16.2-.16.2-.08.18-.16.2-.16.2-.16.1-.16.2-.16.1-.24.18-.08.1-9.52 6.67 9.52 6.67.16.1.16.2.16.1.16.2.16.2.16.18.16.1.16.2.16.2.08.2.16.2.08.28.08.2.08.2.16.2.08.28.08.2v.3l.08.2.08.3v.48l.08.2v1.28l-.08.28v.2l-.08.3-.08.2v.28l-.08.2-.08.3-.08.2-.16.2v.18l-.16.2-.08.2-.16.2-.08.2-.16.18-.16.2-.16.2-.16.2-.16.1-.16.18-.16.2-.16.1-.16.1-.24.1-.16.2-.24.1h-.16l-.24.1-.16.1-.24.08h-.4l-.24.1h-.8l-.24-.1h-.16l-.24-.1h-.16l-.24-.1-.16-.1-.24-.1-.16-.1-.24-.08-.16-.1h-.08l-16.96-11.97-.4-.3-.32-.4-.32-.38-.32-.4-.24-.38-.24-.5-.16-.5-.16-.5-.08-.18-.16-.88-.08-.98v-.1l.16-1.28v-.2l.16-.48.16-.5.24-.4.24-.48.24-.4.32-.38.24-.4.4-.3.32-.28 16.96-11.97.24-.1.16-.1.16-.1.24-.1.16-.1.24-.1h.16l.24-.1h.24l.16-.1h.4zm-69.92 0h.24l.16.1h.48l.16.1.24.1.16.1h.24l.16.2.24.1.16.1h.08l16.88 11.96.4.3.32.28.32.4.32.4.24.38.24.4.24.5.16.48.08.5h.08l.16 1.36v.1l-.08.98-.16.88v.1l-.16.6-.16.48-.24.4-.24.48-.32.4-.32.38-.32.4-.4.3-.16.1-16.88 11.96-.24.1-.16.1-.24.1-.16.1-.16.1-.24.1h-.24l-.16.08h-.24l-.16.1h-1.04l-.24-.1H944l-.16-.1-.24-.1h-.16l-.24-.1-.16-.1-.24-.1-.16-.08-.16-.2-.24-.1-.16-.2-.16-.1-.16-.2-.16-.1-.16-.18-.08-.2-.16-.2-.16-.2-.08-.2-.16-.18-.08-.2-.08-.1-.08-.2-.08-.3-.08-.18-.08-.3-.08-.2-.08-.2v-.3l-.08-.28v-.2l-.08-.3v-1.18l.08-.28v-.3l.08-.2v-.3l.08-.18.08-.3.08-.2.08-.2.08-.28.08-.2.08-.2.16-.2.08-.2.16-.18.16-.2.08-.2.16-.2.16-.2.16-.2.16-.08.16-.2.24-.1.08-.1 9.52-6.67-9.52-6.67-.16-.1-.16-.2-.16-.1-.16-.2-.16-.18-.16-.2-.16-.1-.16-.2-.16-.2-.08-.18-.16-.3-.08-.2-.08-.2-.08-.2-.16-.28-.08-.2v-.2l-.08-.3-.08-.18-.08-.3v-.5l-.08-.2v-1.26l.08-.3v-.2l.08-.3.08-.18v-.3l.08-.2.08-.2.08-.28.08-.2.08-.2.16-.2.08-.2.16-.18.08-.2.16-.2.16-.2.16-.2.16-.18.16-.1.16-.2.16-.2.16-.1.16-.1.24-.1.16-.2.16-.08h.24l.16-.1.24-.1.24-.1h.4l.16-.1h.48zm36.08 6.67l.4.2.24.2 7.04 8.63.16.3.16.48.08.3v2.55l-.08.3-.16.48-.16.3-7.04 8.54-.24.3-.32.2H978.72l-.4-.2-.24-.3-7.04-8.53-.16-.3-.16-.48-.08-.3v-2.54l.08-.3.16-.5.16-.28 7.04-8.63.24-.2.4-.2H981.04zm-1.36 7.36h-.24l-.4.2-.16.2-2.08 2.45-.16.3-.16.48-.08.4v.1l.08.3.16.48.16.2 2 2.54.24.2.4.2h.64l.4-.2.16-.2 2.08-2.55.16-.3.16-.38.08-.3v-.1l-.08-.4-.16-.48-.16-.3-2.08-2.45-.16-.2-.4-.2H980zm-8.72-45.02h.24l.24.1h.32l.24.1.24.1.24.1.24.1.24.2.24.1.16.2.24.08.24.2.16.2.16.3.24.2.16.18.16.3.16.2.08.3.16.28.08.3.16.3.08.3.08.28v.3l.08.3.08.28V1160.52l-.08.3v.28l-.08.3-.08.4-.08.28-.08.2-.08.3-.16.3-.16.28-.08.3-.16.2-.16.28-.24.2-.16.2-.16.2-.24.2-.24.2-.16.18-.24.2-.24.1-.24.1-.24.1-.24.1-.24.1-.24.1h-.32l-.24.1h-.88l-.4-.1-.48-.2-.4-.1-.4-.2-.32-.2-16.96-11.97-.16-.2-.16-.1-.16-.2-.16-.1-.16-.18-.16-.2-.16-.2-.16-.1-.08-.2-.16-.28-.16-.2-.08-.2-.08-.2-.08-.2-.16-.3-.08-.2v-.28l-.08-.2-.08-.3-.08-.2V1148.75l-.08-.3v-.98l.08-.3V1146.7l.08-.2.08-.3v-.2l.08-.28.08-.2.08-.2.16-.3v-.1l.16-.18.08-.3.16-.2.08-.2.16-.18.16-.2.16-.1.16-.2.16-.2.16-.1.16-.2.16-.08.24-.2.16-.1.16-.1.24-.1.16-.1.24-.1h.16l.24-.1h.16l.24-.1h1.28l.16.1h.24l.16.1.24.1h.16l.24.1.16.1.24.1.16.2h.08l9.44 6.67v-13.64l.08-.3v-.3l.08-.4v-.28l.08-.3.08-.3.08-.2.16-.28.08-.3.16-.3.16-.18.16-.3.16-.2.16-.3.16-.2.16-.18.24-.2.16-.2.24-.2.24-.1.24-.2.24-.08.24-.1.24-.1.24-.1.24-.1h.24l.24-.1h.48zm18.16 0h.24l.24.1h.24l.24.1.24.1.24.1.24.1.24.2.24.1.24.2.16.08.24.2.16.2.24.3.16.2.16.18.16.3.16.2.16.3.08.28.16.3.08.2.08.3.08.28.08.3.08.3V1135.5l.08.3v13.53l9.44-6.67.24-.1.16-.1.16-.1.24-.1.16-.1.24-.1.16-.1h.24l.24-.1h1.44l.16.1h.24l.24.1.16.1.24.1.16.1.16.1.24.1.16.1.16.2.24.1.16.2.16.1.16.18.08.2.16.2.16.2.16.2.08.18.16.2.08.2.08.1.08.2.08.3.08.18.08.2.08.3.08.2v.28l.08.2v.3l.08.2v1.26l-.08.3v.2l-.08.3v.28l-.08.2-.08.3-.08.2-.08.2-.08.28-.08.2-.16.2-.08.2-.16.18-.08.2-.16.2-.16.2-.16.2-.08.2-.16.08-.24.2-.16.1-.16.2-.08.1-16.96 11.96-.4.2-.4.2-.48.2-.4.1-.48.1h-.72l-.32-.1h-.24l-.24-.1-.24-.1-.24-.1-.24-.1-.24-.1-.24-.1-.24-.2-.24-.2-.16-.2-.24-.2-.16-.18-.24-.2-.16-.3-.16-.2-.16-.28-.16-.2-.08-.3-.16-.3-.08-.28-.08-.3-.08-.3-.08-.3-.08-.28v-.3l-.08-.3v-25.11l.08-.3v-.4l.08-.28.08-.3.08-.3.08-.2.08-.28.16-.3.08-.3.16-.28.16-.2.16-.3.16-.2.16-.2.24-.18.16-.2.24-.2.24-.2.16-.1.24-.2.24-.08.24-.1.24-.1.24-.1.24-.1h.32l.24-.1h.4z" stroke="#000" stroke-opacity="0" stroke-width=".32" fill="#29b5e8"/><path d="M1288 1216.95h26.64c2.96 0 5.36-2.24 5.36-5.1v-91.7c0-2.86-2.4-5.1-5.36-5.1H1288c-2.96 0-5.36 2.24-5.36 5.1v91.7c0 2.86 2.4 5.1 5.36 5.1z" stroke="#000" stroke-opacity="0" stroke-width="3" fill="url(#j)"/><path d="M1266.64 1216.95h26.72c2.96 0 5.28-2.24 5.28-5.1v-66.23c0-2.85-2.32-5.1-5.28-5.1h-26.72c-2.88 0-5.28 2.25-5.28 5.1v66.24c0 2.85 2.4 5.1 5.28 5.1z" stroke="#000" stroke-opacity="0" stroke-width="3" fill="url(#k)"/><path d="M1245.36 1216.95H1272c2.96 0 5.36-2.24 5.36-5.1v-40.75c0-2.86-2.4-5.1-5.36-5.1h-26.64c-2.96 0-5.36 2.24-5.36 5.1v40.76c0 2.85 2.4 5.1 5.36 5.1z" stroke="#000" stroke-opacity="0" stroke-width="3" fill="url(#l)"/><path d="M540 977.02h85.95v85.96H540v-85.96z" stroke="#fff" stroke-opacity="0" stroke-width="2" fill="#693cc5"/><path d="M583.05 1048.65c-.3 0-.53-.08-.74-.26l-6.93-5.74c-.4-.32-.5-.82-.36-1.28.2-.45.6-.75 1.1-.75h3.44v-3.44h2.3v4.58c0 .63-.52 1.14-1.15 1.14h-1.42l3.75 3.1 3.68-3.1h-1.44c-.62 0-1.14-.52-1.14-1.14v-4.6h2.3v3.45h3.43c.64 0 1.14.53 1.14 1.16 0 .33-.16.62-.4.85l-6.83 5.73c-.2.18-.45.27-.72.27zM593.24 1005.68l-.25 2.3c1.97.14 3.62.47 5.53 1.14-2.06.9-7.74 1.7-15.56 1.7-8.03 0-13.75-.9-15.58-1.7 1.64-.7 6.4-1.64 14.44-1.73v-2.3c-15.6.15-17.2 2.87-17.2 4.02v.22c.03.15.07.27.14.4l.22.4c.08.1.1.17.2.26.1.13.24.22.35.3l12.84 20v3.08c0 .48.28.88.72 1.06 1.32.5 2.53.74 3.93.74 1.36 0 2.53-.25 3.78-.77.44-.17.73-.57.73-1.02v-3.08l12.76-20c.63-.33.96-.9 1-1.58 0-1.25-.96-2.6-8.08-3.44zm-7.77 24.07c-.15.2-.2.37-.2.6v2.6c-1.56.5-3.03.5-4.57 0v-2.6c0-.23-.07-.4-.18-.6l-11.4-17.8c4.83.9 8.98 1.23 13.85 1.17 4.88.06 9.03-.28 13.83-1.16z" stroke="#fff" stroke-opacity="0" stroke-width="2" fill="#fff"/><path d="M589.85 1008.54h-4.58c-.63 0-1.15-.52-1.15-1.15v-4.6c0-.62.52-1.14 1.15-1.14h4.58c.63 0 1.15.52 1.15 1.15v4.6c0 .62-.52 1.14-1.15 1.14zm-3.44-2.3h2.3v-2.3h-2.3zM587.56 998.23h-4.58c-.63 0-1.15-.52-1.15-1.15v-4.58c0-.63.52-1.15 1.15-1.15h4.58c.63 0 1.15.5 1.15 1.15v4.58c0 .63-.5 1.14-1.14 1.14zm-3.44-2.3h2.3v-2.3h-2.3zM578.4 1003.96h-4.6c-.62 0-1.14-.52-1.14-1.15v-4.57c0-.63.52-1.15 1.15-1.15h4.6c.62 0 1.14.5 1.14 1.15v4.58c0 .64-.52 1.16-1.15 1.16zm-3.45-2.3h2.3v-2.3h-2.3z" stroke="#fff" stroke-opacity="0" stroke-width="2" fill="#fff"/><use xlink:href="#m" transform="matrix(1,0,0,1,510,1071.9764623195992) translate(21.611111111111114 17.77777777777778)"/><use xlink:href="#n" transform="matrix(1,0,0,1,510,1071.9764623195992) translate(77.53703703703704 17.77777777777778)"/><path d="M623.98 1400c1.1 0 1.97.86 1.97 1.98v35.15h-3.87v-7.82h-52.77v11.7h9.8v3.95h-9.8v9.72h5.86v3.95h-33.18c-1.12 0-1.98-.86-1.98-1.98v-54.66c0-1.12.86-1.98 1.98-1.98zm1.97 54.67c0 6.44-4.55 9.88-7.9 11.26-.1 2.23-.43 4.46-1.04 6.53 2.16.5 8.95 2.75 8.95 7.65h-3.87c0-1.54-3.78-3.34-6.36-3.95l.1-.5c-2.76 6.18-7.66 10.3-13.33 10.3-5.6 0-10.58-4.12-13.34-10.3l.18.5c-2.58.6-6.36 2.4-6.36 3.96h-3.87c0-4.9 6.8-7.13 8.95-7.64-.6-2.07-1.03-4.3-1.12-6.53-3.27-1.38-7.82-4.82-7.82-11.26H583c0 3.78 2.23 5.84 4.04 6.87.34-3.35 1.37-6.1 2.75-8.25-2.07-1.47-4.82-4.57-4.82-10.32h3.87c0 4.47 2.24 6.53 3.52 7.4.78-.6 1.55-1.13 2.33-1.56.08-1.98.5-3.87 1.37-5.4-1.03-.87-2.15-2.42-2.83-4.65-1.37-.6-2.4-1.98-2.4-3.62 0-2.14 1.72-3.86 3.87-3.86 2.15 0 3.95 1.7 3.95 3.86 0 1.2-.6 2.3-1.46 3 .34 1.03.94 1.8 1.37 2.32 1.2-.86 2.5-1.37 3.96-1.37 1.45 0 2.82.52 3.94 1.38.52-.5 1.03-1.3 1.46-2.32-.94-.7-1.46-1.8-1.46-3 0-2.15 1.72-3.87 3.87-3.87 2.16 0 3.96 1.7 3.96 3.86 0 1.63-1.03 3-2.5 3.6-.6 2.24-1.8 3.8-2.74 4.65.77 1.55 1.3 3.44 1.3 5.42.85.43 1.62.95 2.3 1.55 1.38-.86 3.53-2.92 3.53-7.4h3.96c0 5.76-2.74 8.86-4.9 10.32 1.47 2.14 2.4 4.9 2.76 8.24 1.8-1.03 4.13-3.1 4.13-6.87zm-72.28-42.98h68.42v-7.83h-68.43zm15.64 13.66h52.8v-9.72h-52.8zm-25.43 29.3h5.93v-39.02h-5.93zm56.73-3.7c-6.28.78-9.8 5.6-9.8 13.5 0 3 .5 5.93 1.46 8.43l8.34-5.6zm13.66 13.5c0-7.9-3.52-12.72-9.8-13.5v16.34l8.34 5.6c.95-2.5 1.46-5.43 1.46-8.44zm-60.6-23.46h11.7v-11.7h-11.7zm48.83 41.1c3.43 0 6.43-2.25 8.58-5.7l-8.6-5.66-8.5 5.67c2.15 3.45 5.16 5.68 8.5 5.68zm-48.83-56.74h11.7v-9.72h-11.7zm0 29.3h11.7v-9.7h-11.7zm-9.8-42.97h5.93v-7.83h-5.93zm58.62 31.28c-1.73 0-3.28 1.9-3.7 4.3 1.2-.26 2.48-.44 3.7-.44 1.28 0 2.48.18 3.77.43-.52-2.4-1.98-4.3-3.78-4.3z" stroke="#000" stroke-opacity="0" fill="#4d27aa"/><path d="M575.14 1458.64l4.77.05-.7 21.35 13.5.32 32.9-.38.35-25.13v-17.85l-2.3-9.77-56.57.1.52 29.1z" stroke="#000" stroke-opacity="0" fill-opacity="0"/><use xlink:href="#o" transform="matrix(1,0,0,1,510,1494.952924639199) translate(31.375 14.4)"/><use xlink:href="#p" transform="matrix(1,0,0,1,510,1494.952924639199) translate(76.675 14.4)"/><use xlink:href="#q" transform="matrix(1,0,0,1,510,1494.952924639199) translate(42.125 36)"/><path d="M307.7 1060c-10.84 0-28.1-2.46-28.32-9.1l-7.73-57.2c-.14-.97.43-1.86 1.37-2.07.94-.13 1.88.48 2.1 1.44.8 3.28 13.65 7.86 32.64 7.86 19 0 31.86-4.58 32.65-7.86.23-.96 1.17-1.57 2.1-1.44.94.2 1.52 1.1 1.38 2.06l-7.87 57.2c0 2.26-2.1 4.18-6 5.75-1.8.68-3.38 1.16-5.26 1.57-5.93 1.3-10.98 1.78-17.05 1.78zm-31.93-61.66l6.93 52.3v.2c0 2.05 9.75 5.8 24.92 5.8 5.78.08 10.62-.47 16.25-1.63 1.74-.4 3.18-.88 4.84-1.56 3.12-1.23 3.84-2.33 3.84-2.67v-.2l7-52.23c-6.57 3.9-19.8 6-31.92 6-12.13 0-25.28-2.1-31.85-6z" stroke="#fff" stroke-opacity="0" fill="#3f8624"/><path d="M307.7 1004.32c-16.14 0-34.24-3.65-35.97-10.4V992.98v-.23c0-7.52 19.03-12.77 36.12-12.77 17.1 0 35.98 5.25 35.98 12.77v.22l-.07.7v.2c-1.88 6.77-19.97 10.42-36.05 10.42zm-32.66-11.2c1.08 3.3 13.85 7.8 32.67 7.8s31.6-4.5 32.67-7.8v-.45c-.22-3.3-13.63-9.26-32.66-9.26-19.03 0-32.5 5.96-32.73 9.27zM343.88 1027.87c-8.07 0-25.83-8.02-36.92-13.47l1.5-3.06c15.3 7.53 33.35 14.5 36.45 13.18-.23-.48-1.4-2.02-6.82-4.97l-.24-.16 1.7-2.98.24.17c5.47 2.98 8.07 5.3 8.53 7.5.17.93-.07 1.83-.7 2.57-1.03.95-2.3 1.36-3.72 1.2z" stroke="#fff" stroke-opacity="0" fill="#3f8624"/><path d="M307.7 1016.6c-2.03 0-3.7-1.66-3.7-3.7s1.67-3.7 3.7-3.7c2.04 0 3.7 1.66 3.7 3.7s-1.66 3.7-3.7 3.7zm0-4c-.17 0-.3.14-.3.3 0 .33.6.33.6 0v-.03c0-.17-.13-.3-.3-.3z" stroke="#fff" stroke-opacity="0" fill="#3f8624"/><use xlink:href="#m" transform="matrix(1,0,0,1,241.64999999999998,1069) translate(26.9567901234568 17.77777777777778)"/><use xlink:href="#r" transform="matrix(1,0,0,1,241.64999999999998,1069) translate(82.88271604938271 17.77777777777778)"/><use xlink:href="#s" transform="matrix(1,0,0,1,241.64999999999998,1069) translate(34.54938271604938 44.44444444444444)"/><path d="M-160 1046a6 6 0 0 1 6-6H94a6 6 0 0 1 6 6v388a6 6 0 0 1-6 6h-248a6 6 0 0 1-6-6z" stroke="#3a414a" stroke-width="4" fill="#fff"/><path d="M-49.22 1049.88c-2.46 0-4.2.24-6.24.6-6.06 1.02-7.2 3.24-7.2 7.38v6.24h14.22v3.12h-21.6c-4.14 0-7.8 1.98-8.94 6.72-1.32 5.34-1.38 8.76 0 14.4 1.02 4.2 3.3 7.32 7.44 7.32h5.76v-8.04c0-4.68 4.26-9.3 9.12-9.3h11.4c3.96 0 7.92-2.94 7.92-6.9v-13.56c0-3.9-2.82-6.78-6.66-7.38.06-.06-2.82-.6-5.22-.6zm-7.86 6.3c1.26 0 2.34 1.08 2.34 2.4 0 1.32-1.08 2.34-2.34 2.34-1.32 0-2.4-1.02-2.4-2.34 0-1.32 1.08-2.4 2.4-2.4z" stroke="#000" stroke-opacity="0" stroke-width="2" fill="#0277bd"/><path d="M-50.78 1109.88c2.46 0 4.2-.24 6.24-.6 6.06-1.02 7.2-3.24 7.2-7.38v-6.24h-14.22v-3.12h21.6c4.14 0 7.8-1.98 8.94-6.72 1.32-5.34 1.38-8.76 0-14.4-1.02-4.2-3.3-7.32-7.44-7.32h-5.76v8.04c0 4.68-4.26 9.3-9.12 9.3h-11.4c-3.96 0-7.92 2.94-7.92 6.9v13.56c0 3.9 2.82 6.78 6.66 7.38-.06.06 2.82.6 5.22.6zm7.86-6.3c-1.26 0-2.34-1.08-2.34-2.4 0-1.32 1.08-2.34 2.34-2.34 1.32 0 2.4 1.02 2.4 2.34 0 1.32-1.08 2.4-2.4 2.4z" stroke="#000" stroke-opacity="0" stroke-width="2" fill="#ffc107"/><path d="M-178 1115.88a6 6 0 0 1 6-6H56a6 6 0 0 1 6 6v48a6 6 0 0 1-6 6h-228a6 6 0 0 1-6-6z" fill="none"/><use xlink:href="#t" transform="matrix(1,0,0,1,-178.00090193957487,1109.8823115979972) translate(85.4320987654321 34.44444444444444)"/><path d="M-178 1385.77a6 6 0 0 1 6-6H56a6 6 0 0 1 6 6v48a6 6 0 0 1-6 6h-228a6 6 0 0 1-6-6z" fill="none"/><use xlink:href="#u" transform="matrix(1,0,0,1,-178.00090193957487,1379.7646231959943) translate(46.049382716049394 34.44444444444444)"/><use xlink:href="#v" transform="matrix(1,0,0,1,-178.00090193957487,1379.7646231959943) translate(127.53086419753086 34.44444444444444)"/><path d="M-140 940h60v60h-60v-60z" stroke="#000" stroke-opacity="0" fill="url(#w)"/><path d="M-119.37 978.46h17.83v-16.92h-17.83v16.92zm19.7-16.92h2.8v1.9h-2.8v1.85h2.8v1.9h-2.8v1.85h2.8v1.9h-2.8v2.8h2.8v1.86h-2.8v1.9h2.8v1.87h-2.93c-.25.58-.8.95-1.45.95h-.3v2.8h-1.9v-2.8h-1.84v2.8h-1.9v-2.8h-1.85v2.8h-1.9v-2.8h-1.86v2.8h-1.9v-2.8h-2.8v2.8h-1.87v-2.8h-.33c-.66 0-1.2-.37-1.45-.95h-1.98v-1.86h1.86v-1.9h-1.86v-1.84h1.86v-2.8h-1.86v-1.9h1.86v-1.87h-1.86v-1.9h1.86v-1.86h-1.86v-1.9h1.86v-.3c0-.86.7-1.56 1.57-1.56h.33v-2.8h1.86v2.8h2.8v-2.8h1.9v2.8h1.85v-2.8h1.9v2.8h1.86v-2.8h1.9v2.8h1.86v-2.8h1.9v2.8h.3c.86 0 1.56.7 1.56 1.57v.3zM-110 988.78h-18.78V970h3.75v-1.86h-3.88c-.96 0-1.74.75-1.74 1.7v19.07c0 .96.78 1.74 1.73 1.74h19.07c.94 0 1.7-.78 1.7-1.73v-3.87H-110v3.75zm20.64-37.7v19.08c0 .96-.78 1.7-1.73 1.7h-3.87V970h3.75v-18.78H-110v3.75h-1.86v-3.88c0-.96.75-1.74 1.7-1.74h19.07c.96 0 1.74.78 1.74 1.73z" stroke="#000" stroke-opacity="0" fill="#fff"/><use xlink:href="#x" transform="matrix(1,0,0,1,-170,1009) translate(7.049999999999997 14.4)"/><use xlink:href="#y" transform="matrix(1,0,0,1,-170,1009) translate(78 14.4)"/><path d="M618.1 1260h-57.48c-.85 0-1.58-.72-1.58-1.6v-76.8c0-.88.73-1.6 1.58-1.6h57.48c.85 0 1.58.72 1.58 1.6v76.8c0 .88-.73 1.6-1.58 1.6zm-55.85-3.2h54.2v-73.6h-54.2zM555.85 1260h-4.6c-2.74 0-4.97-2.24-4.97-4.96v-70c0-2.8 2.25-5.04 5-5.04h4.57v3.2h-4.58c-1 0-1.8.8-1.8 1.84v69.92c0 1.04.8 1.84 1.8 1.84h4.58z" stroke="#fff" stroke-opacity="0" fill="#693cc5"/><path d="M568.62 1188h43.08v3.2h-43.08v-3.2zM568.62 1194.4h43.08v3.2h-43.08v-3.2zM568.62 1244h43.08v3.2h-43.08v-3.2zM568.62 1250.4h43.08v3.2h-43.08v-3.2zM589.36 1240c-1.53-.04-2.82-.45-4.1-1.3-.5-.33-.77-.8-.77-1.36v-5.5l-12.52-24.9 2.85-1.46 12.76 25.25c.1.2.16.45.16.73v4.9c1.04.6 2.15.6 3.2 0v-4.97c0-.3.07-.5.17-.74l12.76-25.25 2.84 1.46-12.6 24.9v5.58c0 .55-.26 1-.68 1.3-1.3.9-2.57 1.32-4.1 1.36z" stroke="#fff" stroke-opacity="0" fill="#693cc5"/><path d="M589.44 1211.65c-2.92 0-17.55-.26-17.55-5.32 0-5.05 14.56-5.3 17.54-5.3 2.98 0 17.55.27 17.55 5.3 0 5.04-14.65 5.32-17.56 5.32zm-14-5.32c1.47.87 6.28 2.1 14 2.1s12.57-1.23 14-2.1c-1.43-.85-6.24-2.1-14-2.1s-12.53 1.25-14 2.1z" stroke="#fff" stroke-opacity="0" fill="#693cc5"/><path d="M550.8 1181.7h64.54c1.9 0 2.8.9 2.8 2.76v71.4c0 1.84-.9 2.76-2.8 2.76H550.8c-1.9 0-2.82-.92-2.82-2.77v-71.4c0-1.84.92-2.76 2.8-2.76z" stroke="#fff" stroke-opacity="0" stroke-width=".45" fill="#fff" fill-opacity="0"/><use xlink:href="#z" transform="matrix(1,0,0,1,516.2764623195994,1269) translate(2.2777777777777715 17.77777777777778)"/><use xlink:href="#A" transform="matrix(1,0,0,1,516.2764623195994,1269) translate(55.30246913580246 17.77777777777778)"/><path d="M-180.93 741.05c0 1.2.1 2.14.3 2.9.28.7.57 1.44 1.05 2.3.2.25.2.54.2.77 0 .3-.2.64-.6.93l-2 1.4c-.3.16-.58.28-.77.28-.4 0-.67-.18-.96-.47-.5-.52-.88-.98-1.16-1.5-.4-.58-.68-1.16-1.06-1.92-2.5 2.96-5.57 4.47-9.4 4.47-2.6 0-4.8-.8-6.34-2.3-1.54-1.58-2.4-3.66-2.4-6.22 0-2.78.96-4.98 2.97-6.66 1.93-1.68 4.52-2.5 7.8-2.5 1.04 0 2.2.06 3.35.24 1.25.17 2.4.4 3.74.7v-2.33c0-2.43-.58-4.17-1.54-5.16-1.06-.98-2.8-1.5-5.2-1.5-1.14 0-2.3.17-3.44.46-1.16.3-2.3.64-3.46 1.04-.48.23-.87.4-1.15.47-.2.05-.38.05-.47.05-.48 0-.68-.3-.68-1v-1.56c0-.52.1-.93.2-1.16.2-.23.48-.4.96-.63 1.06-.58 2.4-1.1 4.04-1.45 1.54-.47 3.17-.64 4.9-.64 3.84 0 6.62.87 8.44 2.6 1.73 1.75 2.6 4.4 2.6 7.95v10.45h.1zm-12.96 4.93c1.07 0 2.12-.24 3.28-.6 1.15-.4 2.2-1.1 3.07-2.07.48-.57.86-1.27 1.05-2.02.2-.8.3-1.74.3-2.84v-1.34c-.87-.23-1.93-.4-2.9-.58-1.04-.1-2-.17-3.06-.17-2.1 0-3.65.4-4.7 1.28-1.06.87-1.54 2.08-1.54 3.7 0 1.5.38 2.67 1.15 3.43.77.8 1.83 1.22 3.36 1.22zm25.64 3.47c-.57 0-.96-.1-1.24-.34-.2-.17-.48-.63-.68-1.2l-7.48-24.94c-.2-.64-.3-1.1-.3-1.34 0-.52.3-.8.78-.8h3.16c.58 0 .96.1 1.25.34.2.17.4.64.58 1.27l5.38 21.34 5-21.34c.2-.63.38-1.1.57-1.27.3-.17.77-.35 1.35-.35h2.5c.66 0 1.05.13 1.34.36.2.17.48.64.57 1.27l5 21.57 5.57-21.57c.2-.63.4-1.1.67-1.27.2-.17.68-.35 1.25-.35h2.97c.48 0 .77.3.77.82 0 .18 0 .35-.1.52 0 .24-.1.47-.2.82l-7.67 24.93c-.2.63-.48 1.03-.67 1.26-.3.18-.68.3-1.25.3h-2.8c-.56 0-.95-.06-1.23-.3-.3-.23-.48-.63-.58-1.27l-5-20.83-4.9 20.76c-.18.64-.37 1.04-.56 1.28-.3.24-.77.35-1.35.35h-2.7zm41 .87c-1.64 0-3.27-.23-4.9-.58-1.63-.4-2.88-.8-3.65-1.27-.58-.3-.87-.64-1.06-.93-.1-.3-.2-.64-.2-.93V745c0-.7.3-1 .77-1 .2 0 .4 0 .6.06.18.12.47.23.76.35 1.15.47 2.3.88 3.55 1.1 1.26.3 2.5.42 3.85.42 2 0 3.55-.35 4.6-1.05 1.06-.7 1.64-1.74 1.64-3.07 0-.93-.3-1.62-.88-2.26-.57-.64-1.63-1.16-3.16-1.68l-4.6-1.45c-2.4-.75-4.14-1.85-5.2-3.3-1.05-1.4-1.53-2.95-1.53-4.63 0-1.4.3-2.56.86-3.6.57-1.04 1.34-1.9 2.3-2.67.96-.7 2-1.27 3.26-1.68 1.34-.35 2.7-.52 4.03-.52.76 0 1.43.06 2.2.12.67.1 1.34.23 2.02.34.67.18 1.24.35 1.82.53.58.22 1.06.4 1.34.57.48.28.77.52.96.8.2.3.3.64.3 1.05V725c0 .62-.3.97-.77.97-.2 0-.68-.1-1.16-.35-1.8-.87-3.83-1.27-6.13-1.27-1.83 0-3.27.3-4.23.93-1.05.58-1.53 1.5-1.53 2.84 0 .92.3 1.68.97 2.32.67.58 1.82 1.2 3.55 1.74l4.5 1.45c2.32.75 3.95 1.8 4.9 3.13 1.06 1.27 1.55 2.84 1.55 4.52 0 1.33-.3 2.6-.87 3.7-.58 1.1-1.34 2.1-2.3 2.85-1.06.8-2.2 1.4-3.56 1.8-1.44.46-2.97.7-4.6.7z" stroke="#000" stroke-opacity="0" stroke-width="2" fill="#252f3e"/><path d="M-121.22 765.98c-10.46 7.82-25.72 12-38.88 12-18.43 0-34.94-6.84-47.52-18.26-.96-.93-.1-2.15 1.16-1.45 13.53 7.94 30.24 12.75 47.52 12.75 11.6 0 24.38-2.43 36.2-7.48 1.72-.8 3.25 1.16 1.52 2.44zm4.42-5.05c-1.34-1.74-8.93-.8-12.3-.4-1.04.1-1.24-.76-.28-1.45 5.96-4.23 15.84-3.02 17-1.63 1.15 1.45-.3 11.43-5.95 16.18-.87.75-1.64.4-1.25-.58 1.25-3.2 4.13-10.38 2.78-12.12z" stroke="#000" stroke-opacity="0" stroke-width="2" fill="#f90"/><path d="M-92 723.98a6 6 0 0 1 6-6h228a6 6 0 0 1 6 6v48a6 6 0 0 1-6 6H-86a6 6 0 0 1-6-6z" fill="none"/><use xlink:href="#B" transform="matrix(1,0,0,1,-91.99909806042513,717.98) translate(12.555555555555571 38)"/><use xlink:href="#C" transform="matrix(1,0,0,1,-91.99909806042513,717.98) translate(114.55555555555557 38)"/><path d="M104 1239.18h78.6a6 6 0 0 0 6-6V1026a6 6 0 0 1 6-6h57.87" stroke="#3a414a" stroke-width="4" fill="none"/><path d="M104.05 1241.15H102v-3.95h2.05z" stroke="#3a414a" stroke-width=".05" fill="#3a414a"/><path d="M268.73 1020l-14.26 4.63v-9.27z" stroke="#3a414a" stroke-width="4" fill="#3a414a"/><path d="M347.1 1020h170.16" stroke="#3a414a" stroke-width="4" fill="none"/><path d="M347.14 1021.92l-1.48-1.5-2.5-1.83-.95-.58h4.94z" stroke="#3a414a" stroke-width=".05" fill="#3a414a"/><path d="M533.53 1020l-14.27 4.63v-9.27z" stroke="#3a414a" stroke-width="4" fill="#3a414a"/><path d="M587.93 1111.5v45.76M587.93 1111.57v-2.06" stroke="#3a414a" stroke-width="4" fill="none"/><path d="M587.93 1173.53l-4.64-14.27h9.26z" stroke="#3a414a" stroke-width="4" fill="#3a414a"/><path d="M587.93 1302.37v74.9M587.93 1302.42v-2.05" stroke="#3a414a" stroke-width="4" fill="none"/><path d="M587.93 1393.53l-4.64-14.27h9.26z" stroke="#3a414a" stroke-width="4" fill="#3a414a"/><path d="M649.3 1431.43h128.35a6 6 0 0 0 6-6V1206a6 6 0 0 1 6-6h107.6M649.36 1431.43h-2.05" stroke="#3a414a" stroke-width="4" fill="none"/><path d="M913.53 1200l-14.27 4.63v-9.27z" stroke="#3a414a" stroke-width="4" fill="#3a414a"/><path d="M880 1234a6 6 0 0 1 6-6h198.95a6 6 0 0 1 6 6v48a6 6 0 0 1-6 6H886a6 6 0 0 1-6-6z" fill="none"/><use xlink:href="#D" transform="matrix(1,0,0,1,880,1228.0001463338822) translate(54.32716049382716 34.44444444444444)"/><path d="M1169.54 1220.4a6 6 0 0 1 6-6h198.95a6 6 0 0 1 6 6v48a6 6 0 0 1-6 6h-198.96a6 6 0 0 1-6-6z" fill="none"/><use xlink:href="#E" transform="matrix(1,0,0,1,1169.5370569215488,1214.3865893835807) translate(60.5 34.44444444444444)"/><use xlink:href="#F" transform="matrix(1,0,0,1,1169.5370569215488,1214.3865893835807) translate(129.51234567901236 34.44444444444444)"/><path d="M-650 1294a6 6 0 0 1 6-6h228a6 6 0 0 1 6 6v48a6 6 0 0 1-6 6h-228a6 6 0 0 1-6-6z" fill="none"/><use xlink:href="#G" transform="matrix(1,0,0,1,-650,1288.0001463338822) translate(39.691358024691354 34.44444444444444)"/><use xlink:href="#H" transform="matrix(1,0,0,1,-650,1288.0001463338822) translate(104.19753086419752 34.44444444444444)"/><use xlink:href="#I" transform="matrix(1,0,0,1,-650,1288.0001463338822) translate(168.2716049382716 34.44444444444444)"/><path d="M1042 1200h155.26M1042.05 1200H1040" stroke="#3a414a" stroke-width="4" fill="none"/><path d="M1213.53 1200l-14.27 4.63v-9.27z" stroke="#3a414a" stroke-width="4" fill="#3a414a"/><path d="M-478.72 1228.4h157.34a.02.02 0 0 0 .02 0 .02.02 0 0 1 .03-.04h136.6" stroke="#3a414a" stroke-width="4" fill="none"/><path d="M-478.66 1230.4h-5l1.26-.6 1.4-.93.8-1.3.14-1.13h1.4z" stroke="#3a414a" stroke-width=".05" fill="#3a414a"/><path d="M-168.47 1228.36l-14.27 4.64v-9.27z" stroke="#3a414a" stroke-width="4" fill="#3a414a"/><path d="M-98.85 1379.48l34.5-34.3c.2-.22.2-.5.06-.78-2.08-2.86-5.96-3.35-7.4-5.24-4.25-5.66-5.33-8.87-7.13-8.66-.15 0-.22.07-.36.14l-12.45 12.44c-7.13 7.12-8.13 22.78-8.35 35.92 0 .2.07.35.22.48.28.3.72.3.93 0z" stroke="#000" stroke-opacity="0" stroke-width="1.17" fill="#017cee"/><path d="M-28.3 1378.65l-35.34-33.48c-.22-.2-.58-.2-.8-.07-2.94 2.03-3.45 5.8-5.4 7.2-5.82 4.12-9.14 5.17-8.92 6.92 0 .14.07.2.14.35l12.82 12.1c7.34 6.9 23.47 7.88 37 8.1.22 0 .37-.08.5-.2.3-.3.3-.64 0-.92z" stroke="#000" stroke-opacity="0" stroke-width="1.17" fill="#00ad46"/><path d="M-65.8 1371.66c-4.03-3.85-5.9-11.32 1.8-26.84-12.53 5.45-16.85 12.58-14.76 14.6z" stroke="#000" stroke-opacity="0" stroke-width="1.17" fill="#04d659"/><path d="M-29.15 1310.16l-34.5 34.3c-.2.22-.2.57-.06.78 2.08 2.87 5.96 3.36 7.4 5.24 4.25 5.66 5.33 8.88 7.13 8.67.15 0 .22-.07.36-.14l12.45-12.43c7.13-7.13 8.13-22.78 8.35-35.92 0-.2-.07-.35-.22-.5-.3-.27-.72-.27-.93 0z" stroke="#000" stroke-opacity="0" stroke-width="1.17" fill="#00c7d4"/><path d="M-36.35 1346.57c-3.96 3.9-11.67 5.73-27.65-1.75 5.62 12.16 12.96 16.36 15.05 14.33z" stroke="#000" stroke-opacity="0" stroke-width="1.17" fill="#11e1ee"/><path d="M-99.7 1311l35.34 33.47c.22.2.58.2.8.07 2.94-2.02 3.45-5.8 5.4-7.2 5.82-4.12 9.14-5.16 8.92-6.9 0-.15-.07-.22-.14-.36l-12.82-12.1c-7.34-6.9-23.47-7.9-37-8.1-.22 0-.37.07-.5.2-.3.3-.3.7 0 .92z" stroke="#000" stroke-opacity="0" stroke-width="1.17" fill="#e43921"/><path d="M-62.2 1318c4.03 3.83 5.9 11.3-1.8 26.82 12.53-5.45 16.85-12.58 14.76-14.6z" stroke="#000" stroke-opacity="0" stroke-width="1.17" fill="#ff7557"/><path d="M-91.65 1343.08c3.96-3.92 11.67-5.73 27.65 1.74-5.62-12.16-12.96-16.35-15.05-14.25z" stroke="#000" stroke-opacity="0" stroke-width="1.17" fill="#0cb6ff"/><path d="M-62.5 1344.82c0 .84-.64 1.47-1.5 1.47s-1.5-.64-1.5-1.48.64-1.46 1.5-1.46 1.5.63 1.5 1.46z" stroke="#000" stroke-opacity="0" stroke-width="1.17" fill="#4a4848"/><path d="M-29.88 1197.75c.72-2.8-.16-6.1-4.56-9.7-7.12 5.75-5.04 11.65-2.72 14.55 0 0-.32 1.6-7.28 1.6h-54.48s-3.28 25.8 29.04 25.8c28.32 0 36.32-19.35 37.84-24.3.64.05 1.36.1 2.16.1 3.92 0 8.96-1.9 10.88-8.85-5.12-1.55-8.48-.85-10.88.8z" stroke="#000" stroke-opacity="0" stroke-width="2" fill="#03a9f4"/><path d="M-98.6 1210.65c1.36 7.65 6.96 19.35 28.72 19.35 22.16 0 31.84-11.8 35.76-19.35H-98.6z" stroke="#000" stroke-opacity="0" stroke-width="2" fill="#0288d1"/><path d="M-66.52 1229.9c-1.68-.5-9.28-1.75-10.56-11.2-7.68 3-14.48 2.25-17.44 1.65 3.92 5.2 11.2 9.65 24.64 9.65 1.2 0 2.24-.05 3.36-.1z" stroke="#000" stroke-opacity="0" stroke-width="2" fill="#81d4fa"/><path d="M-69.88 1213.85c-2 0-3.6 1.45-3.6 3.25s1.6 3.2 3.6 3.2 3.68-1.4 3.68-3.2c0-1.8-1.68-3.25-3.68-3.25" stroke="#000" stroke-opacity="0" stroke-width="2" fill="#fff"/><path d="M-75.48 1219.65c.4.85.08 1.9-.88 2.15-6 1.55-11.2 1.8-15.12 1.8-1.12-1-2.16-2.1-2.96-3.2 4.72 0 12.16-.2 16.56-1.55.96-.3 2 0 2.4.8zm-23.44-10.6s3.44.2 5.44-1.65c3.44 2.75 10.8 1.75 12.72 0 1.92 2.75 12.64 2.25 14.56 0 2.24 2.35 12 2.85 14.48 0 .88 2.4 12.4 3.05 14.56 0 1.92 1.75 9.2 3.15 13.28 0 1.04 1.95 4.88 1.65 4.88 1.65v1.6h-79.92m27.28 6.45c0 .9.8 1.6 1.76 1.6 1.04 0 1.84-.7 1.84-1.6 0-.9-.8-1.6-1.84-1.6-.96 0-1.76.7-1.76 1.6z" stroke="#000" stroke-opacity="0" stroke-width="2" fill="#37474f"/><path d="M-82.52 1204.2h-9.12v-8.05h9.12v8.05zm18.16-8.05h-9.12v8.05h9.12v-8.05zm18.16 0h-9.12v8.05h9.12v-8.05zm-27.28-8.1h-9.04v8.1h9.04v-8.1zm18.16 0h-9.04v8.1h9.04v-8.1z" stroke="#000" stroke-opacity="0" stroke-width="2" fill="#01579b"/><path d="M-73.48 1204.2h-9.04v-8.05h9.04v8.05zm18.16-8.05h-9.04v8.05h9.04v-8.05zm0-16.15h-9.04v8.05h9.04V1180zm-9.04 8.05h-9.12v8.1h9.12v-8.1z" stroke="#000" stroke-opacity="0" stroke-width="2" fill="#0288d1"/><path d="M-178 1234a6 6 0 0 1 6-6H56a6 6 0 0 1 6 6v48a6 6 0 0 1-6 6h-228a6 6 0 0 1-6-6z" fill="none"/><g><use xlink:href="#J" transform="matrix(1,0,0,1,-178.00090193957487,1228.0001463338822) translate(84.87654320987654 34.44444444444444)"/></g><defs><path d="M24 0v-248h195v40H76v63h132v40H76v65h150V0H24" id="K"/><path d="M144 0l-44-69L55 0H2l70-98-66-92h53l41 62 40-62h54l-67 91 71 99h-54" id="L"/><path d="M115-3C79 11 28 4 28-45v-112H4v-33h27l15-45h31v45h36v33H77v99c-1 23 16 31 38 25v30" id="M"/><path d="M135-150c-39-12-60 13-60 57V0H25l-1-190h47c2 13-1 29 3 40 6-28 27-53 61-41v41" id="N"/><path d="M133-34C117-15 103 5 69 4 32 3 11-16 11-54c-1-60 55-63 116-61 1-26-3-47-28-47-18 1-26 9-28 27l-52-2c7-38 36-58 82-57s74 22 75 68l1 82c-1 14 12 18 25 15v27c-30 8-71 5-69-32zm-48 3c29 0 43-24 42-57-32 0-66-3-65 30 0 17 8 27 23 27" id="O"/><path d="M190-63c-7 42-38 67-86 67-59 0-84-38-90-98-12-110 154-137 174-36l-49 2c-2-19-15-32-35-32-30 0-35 28-38 64-6 74 65 87 74 30" id="P"/><g id="a"><use transform="matrix(0.1111111111111111,0,0,0.1111111111111111,0,0)" xlink:href="#K"/><use transform="matrix(0.1111111111111111,0,0,0.1111111111111111,26.666666666666664,0)" xlink:href="#L"/><use transform="matrix(0.1111111111111111,0,0,0.1111111111111111,48.888888888888886,0)" xlink:href="#M"/><use transform="matrix(0.1111111111111111,0,0,0.1111111111111111,62.11111111111111,0)" xlink:href="#N"/><use transform="matrix(0.1111111111111111,0,0,0.1111111111111111,77.66666666666666,0)" xlink:href="#O"/><use transform="matrix(0.1111111111111111,0,0,0.1111111111111111,99.88888888888889,0)" xlink:href="#P"/><use transform="matrix(0.1111111111111111,0,0,0.1111111111111111,122.1111111111111,0)" xlink:href="#M"/></g><path d="M24-248c120-7 223 5 221 122C244-46 201 0 124 0H24v-248zM76-40c74 7 117-18 117-86 0-67-45-88-117-82v168" id="Q"/><g id="b"><use transform="matrix(0.1111111111111111,0,0,0.1111111111111111,0,0)" xlink:href="#Q"/><use transform="matrix(0.1111111111111111,0,0,0.1111111111111111,28.777777777777775,0)" xlink:href="#O"/><use transform="matrix(0.1111111111111111,0,0,0.1111111111111111,51,0)" xlink:href="#M"/><use transform="matrix(0.1111111111111111,0,0,0.1111111111111111,64.22222222222223,0)" xlink:href="#O"/></g><path d="M24 0v-248h52v208h133V0H24" id="R"/><path d="M147 0L96-86 75-71V0H25v-261h50v150l67-79h53l-66 74L201 0h-54" id="S"/><path d="M185-48c-13 30-37 53-82 52C43 2 14-33 14-96s30-98 90-98c62 0 83 45 84 108H66c0 31 8 55 39 56 18 0 30-7 34-22zm-45-69c5-46-57-63-70-21-2 6-4 13-4 21h74" id="T"/><g id="c"><use transform="matrix(0.1111111111111111,0,0,0.1111111111111111,0,0)" xlink:href="#R"/><use transform="matrix(0.1111111111111111,0,0,0.1111111111111111,24.333333333333332,0)" xlink:href="#O"/><use transform="matrix(0.1111111111111111,0,0,0.1111111111111111,46.55555555555556,0)" xlink:href="#S"/><use transform="matrix(0.1111111111111111,0,0,0.1111111111111111,68.77777777777777,0)" xlink:href="#T"/></g><path d="M67-93c0 74 22 123 53 168H70C40 30 18-18 18-93s22-123 52-168h50c-32 44-53 94-53 168" id="U"/><path d="M102-93c0 74-22 123-52 168H0C30 29 54-18 53-93c0-74-22-123-53-168h50c30 45 52 94 52 168" id="V"/><g id="d"><use transform="matrix(0.1111111111111111,0,0,0.1111111111111111,0,0)" xlink:href="#U"/><use transform="matrix(0.1111111111111111,0,0,0.1111111111111111,13.222222222222221,0)" xlink:href="#Q"/><use transform="matrix(0.1111111111111111,0,0,0.1111111111111111,42,0)" xlink:href="#R"/><use transform="matrix(0.1111111111111111,0,0,0.1111111111111111,66.33333333333333,0)" xlink:href="#V"/></g><path d="M136-208V0H84v-208H4v-40h212v40h-80" id="W"/><path d="M135-194c87-1 58 113 63 194h-50c-7-57 23-157-34-157-59 0-34 97-39 157H25l-1-190h47c2 12-1 28 3 38 12-26 28-41 61-42" id="X"/><path d="M137-138c1-29-70-34-71-4 15 46 118 7 119 86 1 83-164 76-172 9l43-7c4 19 20 25 44 25 33 8 57-30 24-41C81-84 22-81 20-136c-2-80 154-74 161-7" id="Y"/><path d="M121-226c-27-7-43 5-38 36h38v33H83V0H34v-157H6v-33h28c-9-59 32-81 87-68v32" id="Z"/><path d="M110-194c64 0 96 36 96 99 0 64-35 99-97 99-61 0-95-36-95-99 0-62 34-99 96-99zm-1 164c35 0 45-28 45-65 0-40-10-65-43-65-34 0-45 26-45 65 0 36 10 65 43 65" id="aa"/><path d="M220-157c-53 9-28 100-34 157h-49v-107c1-27-5-49-29-50C55-147 81-57 75 0H25l-1-190h47c2 12-1 28 3 38 10-53 101-56 108 0 13-22 24-43 59-42 82 1 51 116 57 194h-49v-107c-1-25-5-48-29-50" id="ab"/><g id="e"><use transform="matrix(0.1111111111111111,0,0,0.1111111111111111,0,0)" xlink:href="#W"/><use transform="matrix(0.1111111111111111,0,0,0.1111111111111111,22.11111111111111,0)" xlink:href="#N"/><use transform="matrix(0.1111111111111111,0,0,0.1111111111111111,37.666666666666664,0)" xlink:href="#O"/><use transform="matrix(0.1111111111111111,0,0,0.1111111111111111,59.888888888888886,0)" xlink:href="#X"/><use transform="matrix(0.1111111111111111,0,0,0.1111111111111111,84.22222222222221,0)" xlink:href="#Y"/><use transform="matrix(0.1111111111111111,0,0,0.1111111111111111,106.44444444444443,0)" xlink:href="#Z"/><use transform="matrix(0.1111111111111111,0,0,0.1111111111111111,119.66666666666666,0)" xlink:href="#aa"/><use transform="matrix(0.1111111111111111,0,0,0.1111111111111111,144,0)" xlink:href="#N"/><use transform="matrix(0.1111111111111111,0,0,0.1111111111111111,159.55555555555554,0)" xlink:href="#ab"/></g><g id="f"><use transform="matrix(0.1111111111111111,0,0,0.1111111111111111,0,0)" xlink:href="#Q"/><use transform="matrix(0.1111111111111111,0,0,0.1111111111111111,28.777777777777775,0)" xlink:href="#O"/><use transform="matrix(0.1111111111111111,0,0,0.1111111111111111,51,0)" xlink:href="#M"/><use transform="matrix(0.1111111111111111,0,0,0.1111111111111111,64.22222222222223,0)" xlink:href="#O"/></g><path d="M275 0h-61l-44-196L126 0H64L0-248h53L97-49l45-199h58l43 199 44-199h52" id="ac"/><path d="M114-157C55-157 80-60 75 0H25v-261h50l-1 109c12-26 28-41 61-42 86-1 58 113 63 194h-50c-7-57 23-157-34-157" id="ad"/><path d="M85 4C-2 5 27-109 22-190h50c7 57-23 150 33 157 60-5 35-97 40-157h50l1 190h-47c-2-12 1-28-3-38-12 25-28 42-61 42" id="ae"/><g id="g"><use transform="matrix(0.1111111111111111,0,0,0.1111111111111111,0,0)" xlink:href="#ac"/><use transform="matrix(0.1111111111111111,0,0,0.1111111111111111,36.22222222222222,0)" xlink:href="#O"/><use transform="matrix(0.1111111111111111,0,0,0.1111111111111111,58.44444444444444,0)" xlink:href="#N"/><use transform="matrix(0.1111111111111111,0,0,0.1111111111111111,74,0)" xlink:href="#T"/><use transform="matrix(0.1111111111111111,0,0,0.1111111111111111,96.22222222222223,0)" xlink:href="#ad"/><use transform="matrix(0.1111111111111111,0,0,0.1111111111111111,120.55555555555554,0)" xlink:href="#aa"/><use transform="matrix(0.1111111111111111,0,0,0.1111111111111111,144.88888888888889,0)" xlink:href="#ae"/><use transform="matrix(0.1111111111111111,0,0,0.1111111111111111,169.22222222222223,0)" xlink:href="#Y"/><use transform="matrix(0.1111111111111111,0,0,0.1111111111111111,191.44444444444446,0)" xlink:href="#T"/></g><g id="h"><use transform="matrix(0.1111111111111111,0,0,0.1111111111111111,0,0)" xlink:href="#U"/><use transform="matrix(0.1111111111111111,0,0,0.1111111111111111,13.222222222222221,0)" xlink:href="#Q"/><use transform="matrix(0.1111111111111111,0,0,0.1111111111111111,42,0)" xlink:href="#ac"/><use transform="matrix(0.1111111111111111,0,0,0.1111111111111111,79.66666666666666,0)" xlink:href="#V"/></g><path d="M147 0H94L2-248h55l64 206c17-72 42-137 63-206h54" id="af"/><path d="M25-224v-37h50v37H25zM25 0v-190h50V0H25" id="ag"/><path d="M25 0v-261h50V0H25" id="ah"/><path d="M12 0v-35l95-120H19v-35h142v35L67-36h103V0H12" id="ai"/><g id="i"><use transform="matrix(0.1111111111111111,0,0,0.1111111111111111,0,0)" xlink:href="#af"/><use transform="matrix(0.1111111111111111,0,0,0.1111111111111111,25.888888888888886,0)" xlink:href="#ag"/><use transform="matrix(0.1111111111111111,0,0,0.1111111111111111,37,0)" xlink:href="#Y"/><use transform="matrix(0.1111111111111111,0,0,0.1111111111111111,59.22222222222222,0)" xlink:href="#ae"/><use transform="matrix(0.1111111111111111,0,0,0.1111111111111111,83.55555555555556,0)" xlink:href="#O"/><use transform="matrix(0.1111111111111111,0,0,0.1111111111111111,105.77777777777777,0)" xlink:href="#ah"/><use transform="matrix(0.1111111111111111,0,0,0.1111111111111111,116.88888888888889,0)" xlink:href="#ag"/><use transform="matrix(0.1111111111111111,0,0,0.1111111111111111,128,0)" xlink:href="#ai"/><use transform="matrix(0.1111111111111111,0,0,0.1111111111111111,148,0)" xlink:href="#O"/><use transform="matrix(0.1111111111111111,0,0,0.1111111111111111,170.22222222222223,0)" xlink:href="#M"/><use transform="matrix(0.1111111111111111,0,0,0.1111111111111111,183.44444444444446,0)" xlink:href="#ag"/><use transform="matrix(0.1111111111111111,0,0,0.1111111111111111,194.55555555555557,0)" xlink:href="#aa"/><use transform="matrix(0.1111111111111111,0,0,0.1111111111111111,218.8888888888889,0)" xlink:href="#X"/></g><linearGradient gradientUnits="userSpaceOnUse" id="j" x1="1301.32" y1="1113.41" x2="1301.32" y2="1220.42"><stop offset=".6%" stop-color="#ebb112"/><stop offset="100%" stop-color="#bb5c17"/></linearGradient><linearGradient gradientUnits="userSpaceOnUse" id="k" x1="1274.5" y1="1136.75" x2="1285.78" y2="1222.88"><stop offset="0%" stop-color="#fed35d"/><stop offset="28.1%" stop-color="#f6c648"/><stop offset="85.7%" stop-color="#e3a513"/><stop offset="98.9%" stop-color="#de9d06"/></linearGradient><linearGradient gradientUnits="userSpaceOnUse" id="l" x1="1240.81" y1="1161.21" x2="1274.06" y2="1217.53"><stop offset="0%" stop-color="#ffd869"/><stop offset="98.3%" stop-color="#ffdf26"/></linearGradient><path d="M205 0l-28-72H64L36 0H1l101-248h38L239 0h-34zm-38-99l-47-123c-12 45-31 82-46 123h93" id="aj"/><path d="M266 0h-40l-56-210L115 0H75L2-248h35L96-30l15-64 43-154h32l59 218 59-218h35" id="ak"/><path d="M185-189c-5-48-123-54-124 2 14 75 158 14 163 119 3 78-121 87-175 55-17-10-28-26-33-46l33-7c5 56 141 63 141-1 0-78-155-14-162-118-5-82 145-84 179-34 5 7 8 16 11 25" id="al"/><g id="m"><use transform="matrix(0.06172839506172839,0,0,0.06172839506172839,0,0)" xlink:href="#aj"/><use transform="matrix(0.06172839506172839,0,0,0.06172839506172839,14.012345679012345,0)" xlink:href="#ak"/><use transform="matrix(0.06172839506172839,0,0,0.06172839506172839,34.938271604938265,0)" xlink:href="#al"/></g><path d="M143 4C61 4 22-44 18-125c-5-107 100-154 193-111 17 8 29 25 37 43l-32 9c-13-25-37-40-76-40-61 0-88 39-88 99 0 61 29 100 91 101 35 0 62-11 79-27v-45h-74v-28h105v86C228-13 192 4 143 4" id="am"/><path d="M24 0v-261h32V0H24" id="an"/><path d="M84 4C-5 8 30-112 23-190h32v120c0 31 7 50 39 49 72-2 45-101 50-169h31l1 190h-30c-1-10 1-25-2-33-11 22-28 36-60 37" id="ao"/><path d="M100-194c63 0 86 42 84 106H49c0 40 14 67 53 68 26 1 43-12 49-29l28 8c-11 28-37 45-77 45C44 4 14-33 15-96c1-61 26-98 85-98zm52 81c6-60-76-77-97-28-3 7-6 17-6 28h103" id="ap"/><g id="n"><use transform="matrix(0.06172839506172839,0,0,0.06172839506172839,0,0)" xlink:href="#am"/><use transform="matrix(0.06172839506172839,0,0,0.06172839506172839,17.28395061728395,0)" xlink:href="#an"/><use transform="matrix(0.06172839506172839,0,0,0.06172839506172839,22.160493827160494,0)" xlink:href="#ao"/><use transform="matrix(0.06172839506172839,0,0,0.06172839506172839,34.50617283950617,0)" xlink:href="#ap"/></g><g id="o"><use transform="matrix(0.05,0,0,0.05,0,0)" xlink:href="#aj"/><use transform="matrix(0.05,0,0,0.05,11.35,0)" xlink:href="#ak"/><use transform="matrix(0.05,0,0,0.05,28.299999999999997,0)" xlink:href="#al"/></g><g id="p"><use transform="matrix(0.05,0,0,0.05,0,0)" xlink:href="#am"/><use transform="matrix(0.05,0,0,0.05,14,0)" xlink:href="#an"/><use transform="matrix(0.05,0,0,0.05,17.95,0)" xlink:href="#ao"/><use transform="matrix(0.05,0,0,0.05,27.950000000000003,0)" xlink:href="#ap"/></g><path d="M212-179c-10-28-35-45-73-45-59 0-87 40-87 99 0 60 29 101 89 101 43 0 62-24 78-52l27 14C228-24 195 4 139 4 59 4 22-46 18-125c-6-104 99-153 187-111 19 9 31 26 39 46" id="aq"/><path d="M114-163C36-179 61-72 57 0H25l-1-190h30c1 12-1 29 2 39 6-27 23-49 58-41v29" id="ar"/><path d="M141-36C126-15 110 5 73 4 37 3 15-17 15-53c-1-64 63-63 125-63 3-35-9-54-41-54-24 1-41 7-42 31l-33-3c5-37 33-52 76-52 45 0 72 20 72 64v82c-1 20 7 32 28 27v20c-31 9-61-2-59-35zM48-53c0 20 12 33 32 33 41-3 63-29 60-74-43 2-92-5-92 41" id="as"/><path d="M206 0h-36l-40-164L89 0H53L-1-190h32L70-26l43-164h34l41 164 42-164h31" id="at"/><g id="q"><use transform="matrix(0.05,0,0,0.05,0,0)" xlink:href="#aq"/><use transform="matrix(0.05,0,0,0.05,12.950000000000001,0)" xlink:href="#ar"/><use transform="matrix(0.05,0,0,0.05,18.900000000000002,0)" xlink:href="#as"/><use transform="matrix(0.05,0,0,0.05,28.900000000000002,0)" xlink:href="#at"/><use transform="matrix(0.05,0,0,0.05,41.85,0)" xlink:href="#an"/><use transform="matrix(0.05,0,0,0.05,45.800000000000004,0)" xlink:href="#ap"/><use transform="matrix(0.05,0,0,0.05,55.800000000000004,0)" xlink:href="#ar"/></g><path d="M126-127c33 6 58 20 58 59 0 88-139 92-164 29-3-8-5-16-6-25l32-3c6 27 21 44 54 44 32 0 52-15 52-46 0-38-36-46-79-43v-28c39 1 72-4 72-42 0-27-17-43-46-43-28 0-47 15-49 41l-32-3c6-42 35-63 81-64 48-1 79 21 79 65 0 36-21 52-52 59" id="au"/><g id="r"><use transform="matrix(0.06172839506172839,0,0,0.06172839506172839,0,0)" xlink:href="#al"/><use transform="matrix(0.06172839506172839,0,0,0.06172839506172839,14.814814814814813,0)" xlink:href="#au"/></g><path d="M160-131c35 5 61 23 61 61C221 17 115-2 30 0v-248c76 3 177-17 177 60 0 33-19 50-47 57zm-97-11c50-1 110 9 110-42 0-47-63-36-110-37v79zm0 115c55-2 124 14 124-45 0-56-70-42-124-44v89" id="av"/><path d="M96-169c-40 0-48 33-48 73s9 75 48 75c24 0 41-14 43-38l32 2c-6 37-31 61-74 61-59 0-76-41-82-99-10-93 101-131 147-64 4 7 5 14 7 22l-32 3c-4-21-16-35-41-35" id="aw"/><path d="M143 0L79-87 56-68V0H24v-261h32v163l83-92h37l-77 82L181 0h-38" id="ax"/><path d="M59-47c-2 24 18 29 38 22v24C64 9 27 4 27-40v-127H5v-23h24l9-43h21v43h35v23H59v120" id="ay"/><g id="s"><use transform="matrix(0.06172839506172839,0,0,0.06172839506172839,0,0)" xlink:href="#av"/><use transform="matrix(0.06172839506172839,0,0,0.06172839506172839,14.814814814814813,0)" xlink:href="#ao"/><use transform="matrix(0.06172839506172839,0,0,0.06172839506172839,27.160493827160494,0)" xlink:href="#aw"/><use transform="matrix(0.06172839506172839,0,0,0.06172839506172839,38.27160493827161,0)" xlink:href="#ax"/><use transform="matrix(0.06172839506172839,0,0,0.06172839506172839,49.38271604938272,0)" xlink:href="#ap"/><use transform="matrix(0.06172839506172839,0,0,0.06172839506172839,61.7283950617284,0)" xlink:href="#ay"/></g><path d="M30-248c87 1 191-15 191 75 0 78-77 80-158 76V0H30v-248zm33 125c57 0 124 11 124-50 0-59-68-47-124-48v98" id="az"/><path d="M179-190L93 31C79 59 56 82 12 73V49c39 6 53-20 64-50L1-190h34L92-34l54-156h33" id="aA"/><path d="M106-169C34-169 62-67 57 0H25v-261h32l-1 103c12-21 28-36 61-36 89 0 53 116 60 194h-32v-121c2-32-8-49-39-48" id="aB"/><path d="M100-194c62-1 85 37 85 99 1 63-27 99-86 99S16-35 15-95c0-66 28-99 85-99zM99-20c44 1 53-31 53-75 0-43-8-75-51-75s-53 32-53 75 10 74 51 75" id="aC"/><path d="M117-194c89-4 53 116 60 194h-32v-121c0-31-8-49-39-48C34-167 62-67 57 0H25l-1-190h30c1 10-1 24 2 32 11-22 29-35 61-36" id="aD"/><g id="t"><use transform="matrix(0.06172839506172839,0,0,0.06172839506172839,0,0)" xlink:href="#az"/><use transform="matrix(0.06172839506172839,0,0,0.06172839506172839,14.814814814814813,0)" xlink:href="#aA"/><use transform="matrix(0.06172839506172839,0,0,0.06172839506172839,25.925925925925924,0)" xlink:href="#ay"/><use transform="matrix(0.06172839506172839,0,0,0.06172839506172839,32.098765432098766,0)" xlink:href="#aB"/><use transform="matrix(0.06172839506172839,0,0,0.06172839506172839,44.44444444444444,0)" xlink:href="#aC"/><use transform="matrix(0.06172839506172839,0,0,0.06172839506172839,56.79012345679012,0)" xlink:href="#aD"/></g><path d="M115-194c55 1 70 41 70 98S169 2 115 4C84 4 66-9 55-30l1 105H24l-1-265h31l2 30c10-21 28-34 59-34zm-8 174c40 0 45-34 45-75s-6-73-45-74c-42 0-51 32-51 76 0 43 10 73 51 73" id="aE"/><g id="u"><use transform="matrix(0.06172839506172839,0,0,0.06172839506172839,0,0)" xlink:href="#aj"/><use transform="matrix(0.06172839506172839,0,0,0.06172839506172839,14.814814814814813,0)" xlink:href="#aE"/><use transform="matrix(0.06172839506172839,0,0,0.06172839506172839,27.160493827160494,0)" xlink:href="#as"/><use transform="matrix(0.06172839506172839,0,0,0.06172839506172839,39.50617283950617,0)" xlink:href="#aw"/><use transform="matrix(0.06172839506172839,0,0,0.06172839506172839,50.61728395061728,0)" xlink:href="#aB"/><use transform="matrix(0.06172839506172839,0,0,0.06172839506172839,62.962962962962955,0)" xlink:href="#ap"/></g><path d="M24-231v-30h32v30H24zM24 0v-190h32V0H24" id="aF"/><path d="M101-234c-31-9-42 10-38 44h38v23H63V0H32v-167H5v-23h27c-7-52 17-82 69-68v24" id="aG"/><g id="v"><use transform="matrix(0.06172839506172839,0,0,0.06172839506172839,0,0)" xlink:href="#aj"/><use transform="matrix(0.06172839506172839,0,0,0.06172839506172839,14.814814814814813,0)" xlink:href="#aF"/><use transform="matrix(0.06172839506172839,0,0,0.06172839506172839,19.691358024691354,0)" xlink:href="#ar"/><use transform="matrix(0.06172839506172839,0,0,0.06172839506172839,27.03703703703703,0)" xlink:href="#aG"/><use transform="matrix(0.06172839506172839,0,0,0.06172839506172839,33.20987654320987,0)" xlink:href="#an"/><use transform="matrix(0.06172839506172839,0,0,0.06172839506172839,38.08641975308642,0)" xlink:href="#aC"/><use transform="matrix(0.06172839506172839,0,0,0.06172839506172839,50.432098765432094,0)" xlink:href="#at"/></g><linearGradient gradientUnits="userSpaceOnUse" id="w" x1="-140" y1="1000" x2="-80" y2="940"><stop offset="0%" stop-color="#c8511b"/><stop offset="100%" stop-color="#f90"/></linearGradient><path d="M210-169c-67 3-38 105-44 169h-31v-121c0-29-5-50-35-48C34-165 62-65 56 0H25l-1-190h30c1 10-1 24 2 32 10-44 99-50 107 0 11-21 27-35 58-36 85-2 47 119 55 194h-31v-121c0-29-5-49-35-48" id="aH"/><path d="M9 0v-24l116-142H16v-24h144v24L44-24h123V0H9" id="aI"/><g id="x"><use transform="matrix(0.05,0,0,0.05,0,0)" xlink:href="#aj"/><use transform="matrix(0.05,0,0,0.05,12,0)" xlink:href="#aH"/><use transform="matrix(0.05,0,0,0.05,26.950000000000003,0)" xlink:href="#as"/><use transform="matrix(0.05,0,0,0.05,36.95,0)" xlink:href="#aI"/><use transform="matrix(0.05,0,0,0.05,45.95,0)" xlink:href="#aC"/><use transform="matrix(0.05,0,0,0.05,55.95,0)" xlink:href="#aD"/></g><path d="M30 0v-248h187v28H63v79h144v27H63v87h162V0H30" id="aJ"/><path d="M101-251c82-7 93 87 43 132L82-64C71-53 59-42 53-27h129V0H18c2-99 128-94 128-182 0-28-16-43-45-43s-46 15-49 41l-32-3c6-41 34-60 81-64" id="aK"/><g id="y"><use transform="matrix(0.05,0,0,0.05,0,0)" xlink:href="#aJ"/><use transform="matrix(0.05,0,0,0.05,12,0)" xlink:href="#aq"/><use transform="matrix(0.05,0,0,0.05,24.950000000000003,0)" xlink:href="#aK"/></g><path d="M30-248c118-7 216 8 213 122C240-48 200 0 122 0H30v-248zM63-27c89 8 146-16 146-99s-60-101-146-95v194" id="aL"/><g id="z"><use transform="matrix(0.06172839506172839,0,0,0.06172839506172839,0,0)" xlink:href="#aL"/><use transform="matrix(0.06172839506172839,0,0,0.06172839506172839,15.987654320987653,0)" xlink:href="#as"/><use transform="matrix(0.06172839506172839,0,0,0.06172839506172839,28.333333333333332,0)" xlink:href="#ay"/><use transform="matrix(0.06172839506172839,0,0,0.06172839506172839,34.50617283950617,0)" xlink:href="#as"/></g><path d="M177-190C167-65 218 103 67 71c-23-6-38-20-44-43l32-5c15 47 100 32 89-28v-30C133-14 115 1 83 1 29 1 15-40 15-95c0-56 16-97 71-98 29-1 48 16 59 35 1-10 0-23 2-32h30zM94-22c36 0 50-32 50-73 0-42-14-75-50-75-39 0-46 34-46 75s6 73 46 73" id="aM"/><g id="A"><use transform="matrix(0.06172839506172839,0,0,0.06172839506172839,0,0)" xlink:href="#aq"/><use transform="matrix(0.06172839506172839,0,0,0.06172839506172839,15.987654320987653,0)" xlink:href="#as"/><use transform="matrix(0.06172839506172839,0,0,0.06172839506172839,28.333333333333332,0)" xlink:href="#ay"/><use transform="matrix(0.06172839506172839,0,0,0.06172839506172839,34.50617283950617,0)" xlink:href="#as"/><use transform="matrix(0.06172839506172839,0,0,0.06172839506172839,46.85185185185185,0)" xlink:href="#an"/><use transform="matrix(0.06172839506172839,0,0,0.06172839506172839,51.72839506172839,0)" xlink:href="#aC"/><use transform="matrix(0.06172839506172839,0,0,0.06172839506172839,64.07407407407408,0)" xlink:href="#aM"/></g><path d="M199 0l-22-63H83L61 0H9l90-248h61L250 0h-51zm-33-102l-36-108c-10 38-24 72-36 108h72" id="aN"/><path d="M169-182c-1-43-94-46-97-3 18 66 151 10 154 114 3 95-165 93-204 36-6-8-10-19-12-30l50-8c3 46 112 56 116 5-17-69-150-10-154-114-4-87 153-88 188-35 5 8 8 18 10 28" id="aO"/><g id="B"><use transform="matrix(0.1111111111111111,0,0,0.1111111111111111,0,0)" xlink:href="#aN"/><use transform="matrix(0.1111111111111111,0,0,0.1111111111111111,26.555555555555554,0)" xlink:href="#ac"/><use transform="matrix(0.1111111111111111,0,0,0.1111111111111111,64.22222222222221,0)" xlink:href="#aO"/></g><path d="M67-125c0 53 21 87 73 88 37 1 54-22 65-47l45 17C233-25 199 4 140 4 58 4 20-42 15-125 8-235 124-281 211-232c18 10 29 29 36 50l-46 12c-8-25-30-41-62-41-52 0-71 34-72 86" id="aP"/><path d="M88-194c31-1 46 15 58 34l-1-101h50l1 261h-48c-2-10 0-23-3-31C134-8 116 4 84 4 32 4 16-41 15-95c0-56 19-97 73-99zm17 164c33 0 40-30 41-66 1-37-9-64-41-64s-38 30-39 65c0 43 13 65 39 65" id="aQ"/><g id="C"><use transform="matrix(0.1111111111111111,0,0,0.1111111111111111,0,0)" xlink:href="#aP"/><use transform="matrix(0.1111111111111111,0,0,0.1111111111111111,28.777777777777775,0)" xlink:href="#ah"/><use transform="matrix(0.1111111111111111,0,0,0.1111111111111111,39.888888888888886,0)" xlink:href="#aa"/><use transform="matrix(0.1111111111111111,0,0,0.1111111111111111,64.22222222222221,0)" xlink:href="#ae"/><use transform="matrix(0.1111111111111111,0,0,0.1111111111111111,88.55555555555554,0)" xlink:href="#aQ"/></g><g id="D"><use transform="matrix(0.06172839506172839,0,0,0.06172839506172839,0,0)" xlink:href="#al"/><use transform="matrix(0.06172839506172839,0,0,0.06172839506172839,14.814814814814813,0)" xlink:href="#aD"/><use transform="matrix(0.06172839506172839,0,0,0.06172839506172839,27.160493827160494,0)" xlink:href="#aC"/><use transform="matrix(0.06172839506172839,0,0,0.06172839506172839,39.50617283950617,0)" xlink:href="#at"/><use transform="matrix(0.06172839506172839,0,0,0.06172839506172839,55.49382716049382,0)" xlink:href="#aG"/><use transform="matrix(0.06172839506172839,0,0,0.06172839506172839,61.666666666666664,0)" xlink:href="#an"/><use transform="matrix(0.06172839506172839,0,0,0.06172839506172839,66.5432098765432,0)" xlink:href="#as"/><use transform="matrix(0.06172839506172839,0,0,0.06172839506172839,78.88888888888889,0)" xlink:href="#ax"/><use transform="matrix(0.06172839506172839,0,0,0.06172839506172839,90,0)" xlink:href="#ap"/></g><g id="E"><use transform="matrix(0.06172839506172839,0,0,0.06172839506172839,0,0)" xlink:href="#az"/><use transform="matrix(0.06172839506172839,0,0,0.06172839506172839,14.814814814814813,0)" xlink:href="#aC"/><use transform="matrix(0.06172839506172839,0,0,0.06172839506172839,27.160493827160494,0)" xlink:href="#at"/><use transform="matrix(0.06172839506172839,0,0,0.06172839506172839,43.148148148148145,0)" xlink:href="#ap"/><use transform="matrix(0.06172839506172839,0,0,0.06172839506172839,55.49382716049382,0)" xlink:href="#ar"/></g><path d="M33 0v-248h34V0H33" id="aR"/><g id="F"><use transform="matrix(0.06172839506172839,0,0,0.06172839506172839,0,0)" xlink:href="#av"/><use transform="matrix(0.06172839506172839,0,0,0.06172839506172839,14.814814814814813,0)" xlink:href="#aR"/></g><path d="M127-220V0H93v-220H8v-28h204v28h-85" id="aS"/><g id="G"><use transform="matrix(0.06172839506172839,0,0,0.06172839506172839,0,0)" xlink:href="#aS"/><use transform="matrix(0.06172839506172839,0,0,0.06172839506172839,12.716049382716047,0)" xlink:href="#aF"/><use transform="matrix(0.06172839506172839,0,0,0.06172839506172839,17.592592592592588,0)" xlink:href="#ax"/><use transform="matrix(0.06172839506172839,0,0,0.06172839506172839,28.7037037037037,0)" xlink:href="#ay"/><use transform="matrix(0.06172839506172839,0,0,0.06172839506172839,34.87654320987654,0)" xlink:href="#aC"/><use transform="matrix(0.06172839506172839,0,0,0.06172839506172839,47.222222222222214,0)" xlink:href="#ax"/></g><path d="M233-177c-1 41-23 64-60 70L243 0h-38l-65-103H63V0H30v-248c88 3 205-21 203 71zM63-129c60-2 137 13 137-47 0-61-80-42-137-45v92" id="aT"/><path d="M85-194c31 0 48 13 60 33l-1-100h32l1 261h-30c-2-10 0-23-3-31C134-8 116 4 85 4 32 4 16-35 15-94c0-66 23-100 70-100zm9 24c-40 0-46 34-46 75 0 40 6 74 45 74 42 0 51-32 51-76 0-42-9-74-50-73" id="aU"/><g id="H"><use transform="matrix(0.06172839506172839,0,0,0.06172839506172839,0,0)" xlink:href="#aT"/><use transform="matrix(0.06172839506172839,0,0,0.06172839506172839,15.987654320987653,0)" xlink:href="#as"/><use transform="matrix(0.06172839506172839,0,0,0.06172839506172839,28.333333333333332,0)" xlink:href="#aE"/><use transform="matrix(0.06172839506172839,0,0,0.06172839506172839,40.67901234567901,0)" xlink:href="#aF"/><use transform="matrix(0.06172839506172839,0,0,0.06172839506172839,45.55555555555556,0)" xlink:href="#aU"/></g><g id="I"><use transform="matrix(0.06172839506172839,0,0,0.06172839506172839,0,0)" xlink:href="#aj"/><use transform="matrix(0.06172839506172839,0,0,0.06172839506172839,14.814814814814813,0)" xlink:href="#aE"/><use transform="matrix(0.06172839506172839,0,0,0.06172839506172839,27.160493827160494,0)" xlink:href="#aF"/></g><g id="J"><use transform="matrix(0.06172839506172839,0,0,0.06172839506172839,0,0)" xlink:href="#aL"/><use transform="matrix(0.06172839506172839,0,0,0.06172839506172839,15.987654320987653,0)" xlink:href="#aC"/><use transform="matrix(0.06172839506172839,0,0,0.06172839506172839,28.333333333333332,0)" xlink:href="#aw"/><use transform="matrix(0.06172839506172839,0,0,0.06172839506172839,39.44444444444444,0)" xlink:href="#ax"/><use transform="matrix(0.06172839506172839,0,0,0.06172839506172839,50.55555555555556,0)" xlink:href="#ap"/><use transform="matrix(0.06172839506172839,0,0,0.06172839506172839,62.901234567901234,0)" xlink:href="#ar"/></g></defs></g></svg>